<?xml version="1.0" encoding="utf-8"?>
<!-- Generator: Adobe Illustrator 28.0.0, SVG Export Plug-In . SVG Version: 6.00 Build 0)  -->
<svg version="1.1" id="Слой_1" xmlns="http://www.w3.org/2000/svg" xmlns:xlink="http://www.w3.org/1999/xlink" x="0px" y="0px"
	 viewBox="0 0 239.8 103.8" style="enable-background:new 0 0 239.8 103.8;" xml:space="preserve">
<style type="text/css">
	.st0{clip-path:url(#SVGID_00000033336524497579637770000003832735328323403192_);}
	.st1{fill:#C21631;}
</style>
<g>
	<defs>
		<rect id="SVGID_1_" x="-0.2" width="240" height="105"/>
	</defs>
	<clipPath id="SVGID_00000050625769097137985580000008854393224714079628_">
		<use xlink:href="#SVGID_1_"  style="overflow:visible;"/>
	</clipPath>
	
		<g id="Ð_x9B_Ð_xBE_Ð_xB3_Ð_xBE__Ð_x9C_Ð_xA3_Ð_x98_Ð_x92__1" style="clip-path:url(#SVGID_00000050625769097137985580000008854393224714079628_);">
		<path id="Vector" class="st1" d="M88.9,57.6V43.8h2.3l4.6,9.2l4.6-9.2h2.3v13.8h-2.4v-8.3l-4,8.3h-0.9l-4-8.3v8.3H88.9z"/>
		<path id="Vector_2" class="st1" d="M113,55.4c0.9,0,1.6-0.2,2.2-0.6c0.6-0.4,1-0.9,1.3-1.7c0.3-0.7,0.4-1.6,0.4-2.5
			c0-1-0.1-1.8-0.4-2.5s-0.7-1.3-1.3-1.6c-0.6-0.4-1.3-0.6-2.2-0.6c-0.9,0-1.6,0.2-2.2,0.6c-0.6,0.4-1,0.9-1.3,1.7
			c-0.3,0.7-0.4,1.6-0.4,2.5c0,1,0.1,1.8,0.4,2.5c0.3,0.7,0.7,1.3,1.3,1.6C111.4,55.2,112.1,55.4,113,55.4z M113,57.9
			c-1.4,0-2.6-0.3-3.6-0.9c-1-0.6-1.8-1.4-2.3-2.5c-0.5-1.1-0.8-2.3-0.8-3.8c0-1.4,0.3-2.7,0.8-3.8c0.5-1.1,1.3-1.9,2.3-2.5
			c1-0.6,2.2-0.9,3.6-0.9c1.4,0,2.6,0.3,3.6,0.9c1,0.6,1.8,1.4,2.3,2.5c0.5,1.1,0.8,2.3,0.8,3.8c0,1.4-0.3,2.7-0.8,3.8
			c-0.5,1.1-1.3,1.9-2.3,2.5C115.6,57.6,114.4,57.9,113,57.9z"/>
		<path id="Vector_3" class="st1" d="M129.1,57.9c-1.4,0-2.6-0.3-3.6-0.9c-1-0.6-1.8-1.4-2.3-2.5c-0.5-1.1-0.8-2.3-0.8-3.8
			s0.3-2.7,0.8-3.8c0.5-1.1,1.3-1.9,2.3-2.5c1-0.6,2.2-0.9,3.6-0.9c1.6,0,2.9,0.4,4,1.2c1.1,0.8,1.8,1.9,2.3,3.2l-2.6,0.7
			c-0.3-0.8-0.7-1.5-1.3-2c-0.6-0.5-1.4-0.7-2.4-0.7c-0.9,0-1.6,0.2-2.2,0.6c-0.6,0.4-1,0.9-1.3,1.7c-0.3,0.7-0.4,1.5-0.4,2.5
			s0.1,1.8,0.4,2.5c0.3,0.7,0.7,1.3,1.3,1.7c0.6,0.4,1.3,0.6,2.2,0.6c1,0,1.7-0.2,2.4-0.7c0.6-0.5,1-1.1,1.3-2l2.6,0.7
			c-0.4,1.3-1.2,2.4-2.3,3.2C132,57.5,130.7,57.9,129.1,57.9z"/>
		<path id="Vector_4" class="st1" d="M139.1,57.6V43.8h2.6v6.4l5.3-6.4h3.2l-5.8,6.8l6.2,7h-3.3l-5.5-6.3v6.3H139.1z"/>
		<path id="Vector_5" class="st1" d="M158.6,55.4c0.9,0,1.6-0.2,2.2-0.6c0.6-0.4,1-0.9,1.3-1.7c0.3-0.7,0.4-1.6,0.4-2.5
			c0-1-0.1-1.8-0.4-2.5c-0.3-0.7-0.7-1.3-1.3-1.6c-0.6-0.4-1.3-0.6-2.2-0.6c-0.9,0-1.6,0.2-2.2,0.6c-0.6,0.4-1,0.9-1.3,1.7
			c-0.3,0.7-0.4,1.6-0.4,2.5c0,1,0.1,1.8,0.4,2.5c0.3,0.7,0.7,1.3,1.3,1.6C157,55.2,157.7,55.4,158.6,55.4z M158.6,57.9
			c-1.4,0-2.6-0.3-3.6-0.9c-1-0.6-1.8-1.4-2.3-2.5c-0.5-1.1-0.8-2.3-0.8-3.8c0-1.4,0.3-2.7,0.8-3.8c0.5-1.1,1.3-1.9,2.3-2.5
			c1-0.6,2.2-0.9,3.6-0.9c1.4,0,2.6,0.3,3.6,0.9c1,0.6,1.8,1.4,2.3,2.5c0.5,1.1,0.8,2.3,0.8,3.8c0,1.4-0.3,2.7-0.8,3.8
			c-0.5,1.1-1.3,1.9-2.3,2.5C161.2,57.6,160,57.9,158.6,57.9z"/>
		<path id="Vector_6" class="st1" d="M171.4,55.1h3.2c0.4,0,0.7-0.1,0.9-0.2c0.3-0.2,0.5-0.4,0.6-0.6c0.2-0.3,0.2-0.6,0.2-1
			c0-0.3-0.1-0.6-0.2-0.9c-0.1-0.3-0.3-0.5-0.6-0.6c-0.3-0.2-0.6-0.2-1-0.2h-3.2V55.1z M171.4,49.2h2.8c0.3,0,0.6-0.1,0.8-0.2
			c0.2-0.1,0.4-0.3,0.5-0.5c0.1-0.2,0.2-0.5,0.2-0.8c0-0.4-0.1-0.8-0.4-1.1c-0.3-0.3-0.6-0.4-1.1-0.4h-2.8V49.2z M168.8,57.6V43.8
			h5.5c1,0,1.8,0.2,2.4,0.6c0.6,0.4,1.1,0.9,1.3,1.5c0.3,0.6,0.4,1.2,0.4,1.8c0,0.8-0.2,1.4-0.5,1.9c-0.4,0.5-0.8,0.9-1.4,1v-0.5
			c0.9,0.2,1.5,0.6,1.9,1.2c0.4,0.6,0.6,1.3,0.6,2.1c0,0.8-0.2,1.6-0.5,2.2c-0.3,0.6-0.8,1.1-1.4,1.5c-0.6,0.4-1.4,0.5-2.3,0.5
			H168.8z"/>
		<path id="Vector_7" class="st1" d="M188.5,57.9c-1.4,0-2.6-0.3-3.6-0.9c-1-0.6-1.8-1.4-2.3-2.5c-0.5-1.1-0.8-2.3-0.8-3.8
			s0.3-2.7,0.8-3.8c0.5-1.1,1.3-1.9,2.3-2.5c1-0.6,2.2-0.9,3.6-0.9c1.6,0,2.9,0.4,4,1.2c1.1,0.8,1.8,1.9,2.3,3.2l-2.6,0.7
			c-0.3-0.8-0.7-1.5-1.3-2c-0.6-0.5-1.4-0.7-2.4-0.7c-0.9,0-1.6,0.2-2.2,0.6c-0.6,0.4-1,0.9-1.3,1.7c-0.3,0.7-0.4,1.5-0.4,2.5
			s0.1,1.8,0.4,2.5c0.3,0.7,0.7,1.3,1.3,1.7c0.6,0.4,1.3,0.6,2.2,0.6c1,0,1.7-0.2,2.4-0.7c0.6-0.5,1-1.1,1.3-2l2.6,0.7
			c-0.4,1.3-1.2,2.4-2.3,3.2C191.5,57.5,190.1,57.9,188.5,57.9z"/>
		<path id="Vector_8" class="st1" d="M198.5,57.6V43.8h2.6v6.4l5.3-6.4h3.2l-5.8,6.8l6.2,7h-3.3l-5.5-6.3v6.3H198.5z"/>
		<path id="Vector_9" class="st1" d="M221.5,57.6v-9.2l-6,9.2h-2.7V43.8h2.7V53l6-9.2h2.7v13.8H221.5z"/>
		<path id="Vector_10" class="st1" d="M234.1,42.6c-0.6,0-1.1-0.1-1.5-0.4c-0.5-0.3-0.8-0.6-1.1-1.1c-0.3-0.5-0.4-1-0.4-1.5h2
			c0,0.3,0.1,0.5,0.3,0.7c0.2,0.2,0.4,0.3,0.7,0.3c0.3,0,0.5-0.1,0.7-0.3c0.2-0.2,0.3-0.4,0.3-0.7h2c0,0.6-0.1,1.1-0.4,1.5
			c-0.3,0.5-0.6,0.8-1.1,1.1C235.1,42.5,234.6,42.6,234.1,42.6z M228.4,57.6V43.8h2.7V53l6-9.2h2.7v13.8h-2.7v-9.2l-6,9.2H228.4z"/>
		<path id="Vector_11" class="st1" d="M90.6,80.7l1.9-3.9l-4.7-10h3l3.1,7.2l3.3-7.2h2.8l-6.5,13.8H90.6z"/>
		<path id="Vector_12" class="st1" d="M102.5,80.7V66.8h2.6v5.7h6.2v-5.7h2.6v13.8h-2.6V75h-6.2v5.7H102.5z"/>
		<path id="Vector_13" class="st1" d="M126.6,80.7v-9.2l-6,9.2h-2.7V66.8h2.7v9.2l6-9.2h2.7v13.8H126.6z"/>
		<path id="Vector_14" class="st1" d="M135.8,78.2h3.2c0.4,0,0.7-0.1,0.9-0.2c0.3-0.2,0.5-0.4,0.7-0.6c0.2-0.3,0.2-0.6,0.2-1
			c0-0.3-0.1-0.6-0.2-0.9c-0.1-0.3-0.3-0.5-0.6-0.6c-0.3-0.2-0.6-0.2-1-0.2h-3.2V78.2z M135.8,72.2h2.8c0.3,0,0.6-0.1,0.8-0.2
			c0.2-0.1,0.4-0.3,0.5-0.5c0.1-0.2,0.2-0.5,0.2-0.8c0-0.4-0.1-0.8-0.4-1.1s-0.6-0.4-1.1-0.4h-2.8V72.2z M133.2,80.7V66.8h5.5
			c1,0,1.8,0.2,2.4,0.6c0.6,0.4,1.1,0.9,1.3,1.5c0.3,0.6,0.4,1.2,0.4,1.8c0,0.8-0.2,1.4-0.5,1.9c-0.3,0.5-0.8,0.9-1.4,1v-0.5
			c0.9,0.2,1.5,0.6,1.9,1.2c0.4,0.6,0.6,1.3,0.6,2.1c0,0.8-0.2,1.6-0.5,2.2c-0.3,0.6-0.8,1.1-1.4,1.5c-0.6,0.4-1.4,0.5-2.3,0.5
			H133.2z"/>
		<path id="Vector_15" class="st1" d="M146.7,80.7V66.8h9v2.4h-6.4v3h5.3v2.4h-5.3v3.6h6.4v2.4H146.7z"/>
		<path id="Vector_16" class="st1" d="M161.9,73.5h3.1c0.1,0,0.3,0,0.4,0c0.2,0,0.3,0,0.4-0.1c0.4-0.1,0.6-0.3,0.8-0.5
			c0.2-0.2,0.3-0.5,0.4-0.8c0.1-0.3,0.1-0.5,0.1-0.8c0-0.3,0-0.5-0.1-0.8c-0.1-0.3-0.2-0.5-0.4-0.8c-0.2-0.2-0.5-0.4-0.8-0.5
			c-0.1,0-0.3-0.1-0.4-0.1c-0.2,0-0.3,0-0.4,0h-3.1V73.5z M159.3,80.7V66.8h5.8c0.1,0,0.3,0,0.5,0c0.2,0,0.4,0,0.6,0.1
			c0.8,0.1,1.5,0.4,2,0.8c0.5,0.4,0.9,0.9,1.2,1.6c0.3,0.6,0.4,1.3,0.4,2.1c0,0.8-0.1,1.5-0.4,2.1c-0.3,0.6-0.6,1.2-1.2,1.6
			c-0.5,0.4-1.2,0.7-2,0.8c-0.2,0-0.4,0-0.6,0.1c-0.2,0-0.4,0-0.5,0h-3.2v4.7H159.3z"/>
		<path id="Vector_17" class="st1" d="M179,81c-1.4,0-2.6-0.3-3.6-0.9c-1-0.6-1.8-1.4-2.3-2.5c-0.5-1.1-0.8-2.3-0.8-3.8
			c0-1.4,0.3-2.7,0.8-3.8c0.5-1.1,1.3-1.9,2.3-2.5c1-0.6,2.2-0.9,3.6-0.9c1.6,0,2.9,0.4,4,1.2c1.1,0.8,1.8,1.9,2.3,3.2l-2.6,0.7
			c-0.3-0.8-0.7-1.5-1.3-2c-0.6-0.5-1.4-0.7-2.4-0.7c-0.9,0-1.6,0.2-2.2,0.6c-0.6,0.4-1,0.9-1.3,1.7c-0.3,0.7-0.4,1.5-0.4,2.5
			c0,1,0.1,1.8,0.4,2.5c0.3,0.7,0.7,1.3,1.3,1.7c0.6,0.4,1.3,0.6,2.2,0.6c1,0,1.7-0.2,2.4-0.7c0.6-0.5,1-1.1,1.3-2l2.6,0.7
			c-0.4,1.3-1.2,2.4-2.3,3.2C181.9,80.6,180.5,81,179,81z"/>
		<path id="Vector_18" class="st1" d="M197.3,80.7v-9.2l-6,9.2h-2.7V66.8h2.7v9.2l6-9.2h2.7v13.8H197.3z"/>
		<path id="Vector_19" class="st1" d="M207.1,80.7V69.3h-4.4v-2.4h11.3v2.4h-4.4v11.4H207.1z"/>
		<path id="Vector_20" class="st1" d="M216.9,80.7V66.8h9v2.4h-6.4v3h5.3v2.4h-5.3v3.6h6.4v2.4H216.9z"/>
		<path id="Vector_21" class="st1" d="M232.7,80.7V69.3h-4.4v-2.4h11.3v2.4h-4.4v11.4H232.7z"/>
		<path id="Vector_22" class="st1" d="M97.6,103.8v-9.2l-6,9.2h-2.7V89.9h2.7v9.2l6-9.2h2.7v13.8H97.6z"/>
		<path id="Vector_23" class="st1" d="M103.5,103.8V89.9h2.3l4.6,9.2l4.6-9.2h2.3v13.8h-2.4v-8.3l-4,8.3H110l-4-8.3v8.3H103.5z"/>
		<path id="Vector_24" class="st1" d="M121.1,101.2h2.6v2.6h-2.6V101.2z"/>
		<path id="Vector_25" class="st1" d="M137.7,104.1c-1.4,0-2.6-0.3-3.6-0.9c-1-0.6-1.8-1.4-2.3-2.5c-0.5-1.1-0.8-2.3-0.8-3.8
			c0-1.4,0.3-2.7,0.8-3.8c0.5-1.1,1.3-1.9,2.3-2.5c1-0.6,2.2-0.9,3.6-0.9c1.6,0,2.9,0.4,4,1.2c1.1,0.8,1.8,1.9,2.3,3.2l-2.6,0.7
			c-0.3-0.8-0.7-1.5-1.3-2c-0.6-0.5-1.4-0.7-2.4-0.7c-0.9,0-1.6,0.2-2.2,0.6c-0.6,0.4-1,0.9-1.3,1.7c-0.3,0.7-0.4,1.5-0.4,2.5
			c0,1,0.1,1.8,0.4,2.5c0.3,0.7,0.7,1.3,1.3,1.7c0.6,0.4,1.3,0.6,2.2,0.6c1,0,1.7-0.2,2.4-0.7c0.6-0.5,1-1.1,1.3-2l2.6,0.7
			c-0.4,1.3-1.2,2.4-2.3,3.2C140.7,103.7,139.3,104.1,137.7,104.1z"/>
		<path id="Vector_26" class="st1" d="M146.2,101.2h2.6v2.6h-2.6V101.2z"/>
		<path id="Vector_27" class="st1" d="M163,101.6c0.5,0,1-0.1,1.4-0.3c0.4-0.2,0.7-0.6,1-1c0.3-0.4,0.4-0.9,0.6-1.5
			c0.1-0.6,0.2-1.2,0.2-1.9c0-0.7-0.1-1.3-0.2-1.9c-0.1-0.6-0.3-1.1-0.6-1.5c-0.3-0.4-0.6-0.7-1-1c-0.4-0.2-0.9-0.3-1.4-0.3
			s-1,0.1-1.4,0.3c-0.4,0.2-0.7,0.6-1,1s-0.4,0.9-0.6,1.5c-0.1,0.6-0.2,1.2-0.2,1.9c0,0.7,0.1,1.3,0.2,1.9c0.1,0.6,0.3,1.1,0.6,1.5
			s0.6,0.7,1,1C162,101.5,162.5,101.6,163,101.6z M163,104.1c-0.9,0-1.7-0.2-2.5-0.5c-0.7-0.3-1.4-0.8-1.9-1.4
			c-0.5-0.6-0.9-1.4-1.2-2.3c-0.3-0.9-0.4-1.9-0.4-3c0-1.1,0.1-2.1,0.4-3c0.3-0.9,0.7-1.6,1.2-2.3c0.5-0.6,1.1-1.1,1.9-1.4
			c0.7-0.3,1.6-0.5,2.5-0.5s1.7,0.2,2.5,0.5c0.7,0.3,1.4,0.8,1.9,1.4c0.5,0.6,0.9,1.4,1.2,2.3c0.3,0.9,0.4,1.9,0.4,3
			c0,1.1-0.1,2.1-0.4,3c-0.3,0.9-0.7,1.6-1.2,2.3c-0.5,0.6-1.1,1.1-1.9,1.4C164.8,103.9,164,104.1,163,104.1z M152.5,103.8V89.9h2.6
			v5.6h2.3v2.6h-2.3v5.6H152.5z"/>
		<path id="Vector_28" class="st1" d="M170.9,101.2h2.6v2.6h-2.6V101.2z"/>
		<path id="Vector_29" class="st1" d="M179.9,101.3h3.2c0.4,0,0.7-0.1,0.9-0.2c0.3-0.2,0.5-0.4,0.7-0.6c0.2-0.3,0.2-0.6,0.2-1
			c0-0.3-0.1-0.6-0.2-0.9c-0.1-0.3-0.3-0.5-0.6-0.6c-0.3-0.2-0.6-0.2-1-0.2h-3.2V101.3z M179.9,95.3h2.8c0.3,0,0.6-0.1,0.8-0.2
			c0.2-0.1,0.4-0.3,0.5-0.5c0.1-0.2,0.2-0.5,0.2-0.8c0-0.4-0.1-0.8-0.4-1.1c-0.3-0.3-0.6-0.4-1.1-0.4h-2.8V95.3z M177.2,103.8V89.9
			h5.5c1,0,1.8,0.2,2.4,0.6c0.6,0.4,1.1,0.9,1.3,1.5c0.3,0.6,0.4,1.2,0.4,1.8c0,0.8-0.2,1.4-0.5,1.9c-0.4,0.5-0.8,0.9-1.4,1v-0.5
			c0.9,0.2,1.5,0.6,1.9,1.2c0.4,0.6,0.6,1.3,0.6,2.1c0,0.8-0.2,1.6-0.5,2.2c-0.3,0.6-0.8,1.1-1.4,1.5c-0.6,0.4-1.4,0.5-2.3,0.5
			H177.2z"/>
		<path id="Vector_30" class="st1" d="M198.7,103.8v-9.2l-6,9.2h-2.7V89.9h2.7v9.2l6-9.2h2.7v13.8H198.7z"/>
		<path id="Vector_31" class="st1" d="M207.9,103.8V92.4h-4.4v-2.4h11.3v2.4h-4.4v11.4H207.9z"/>
		<path id="Vector_32" class="st1" d="M221.3,103.8V92.4H217v-2.4h11.3v2.4H224v11.4H221.3z"/>
		<path id="Vector_33" class="st1" d="M230.4,103.8V89.9h9v2.4h-6.4v3h5.3v2.4h-5.3v3.6h6.4v2.4H230.4z"/>
		<path id="Vector_34" class="st1" d="M64.6,98.5h-17c0.4-0.7,0.6-1.7,0.6-2.8c0-1-0.2-2-0.5-2.7h17c2.2,0,3.3,0.9,3.3,2.7
			C67.9,97.5,66.8,98.5,64.6,98.5z M47.5,87.7c0.4-0.7,0.7-1.8,0.7-2.9c0-0.8-0.1-1.5-0.3-2.1h15.6c2.2,0,3.2,0.9,3.2,2.6
			c0,1.8-1.1,2.6-3.2,2.6H47.5V87.7z M74.4,92.3c-0.8-1.1-2.1-1.9-3.6-2.4c1.2-0.6,2.1-1.4,2.7-2.4c0.6-1,0.9-2.1,0.9-3.4
			c0-2.2-0.9-3.9-2.7-5.1c-1.8-1.2-4.3-1.8-7.5-1.8H40v26.7h24.9c3.4,0,6.1-0.7,7.9-2c1.9-1.4,2.8-3.2,2.8-5.6
			C75.6,94.7,75.2,93.4,74.4,92.3z"/>
		<path id="Vector_35" class="st1" d="M40,70.3V43.9H27.3l-7.1,18.2L13,43.9H0.4v26.4h7.8V51.1l8,19.2h8.2L32.2,51v19.3H40z"/>
		<path id="Vector_36" class="st1" d="M59.5,56.7l-7.3-12.8h-9L55,64.5l-3.3,5.8h8.8l15.1-26.4h-8.8L59.5,56.7z"/>
		<path id="Vector_37" class="st1" d="M8.2,95.5V77.4H0.4v26.4h10.3l12.6-18.6v18.6h7.9V77.4H20.5L8.2,95.5z"/>
		<path id="Vector_38" class="st1" d="M0.1,24.8v7.4c29.8,0,56.5-9,77-26.1l-4.5-5.8C53.4,16.3,28.3,24.8,0.1,24.8z"/>
	</g>
</g>
</svg>
