<svg xmlns="http://www.w3.org/2000/svg" xmlns:xlink="http://www.w3.org/1999/xlink" version="1.1" id="Layer_1" x="0px" y="0px" width="14.859px" height="14.859px" viewBox="0 0 14.859 14.859" enable-background="new 0 0 14.859 14.859" xml:space="preserve">
<g>
	<path fill="#898687" d="M0,3.483c0.48-0.538,0.945-1.091,1.444-1.61c0.6-0.624,1.451-0.67,1.997-0.015   C3.885,2.389,4.417,2.847,4.907,3.34c0.65,0.654,0.679,1.224,0.088,1.931C4.847,5.448,4.671,5.602,4.507,5.766   C3.835,6.438,3.793,6.467,4.311,7.224c1.058,1.543,2.371,2.824,4.122,3.741c0.385-0.407,0.757-0.823,1.153-1.215   c0.513-0.508,1.211-0.503,1.729,0.003c0.525,0.512,1.04,1.035,1.558,1.554c0.699,0.7,0.702,1.309-0.015,2.007   c-0.573,0.557-1.017,1.271-1.83,1.545c-0.387,0-0.774,0-1.161,0c-0.261-0.074-0.525-0.143-0.784-0.224   c-3.069-0.95-5.355-2.936-7.227-5.469C0.999,8.006,0.447,6.699,0,5.34C0,4.721,0,4.102,0,3.483z"/>
	<path fill="#898687" d="M8.242,0c1.008,0.448,2.09,0.78,3.009,1.367c1.887,1.207,3.029,2.989,3.498,5.19   c0.014,0.064,0.072,0.117,0.11,0.176c0,0.077,0,0.155,0,0.232c-0.347,0.077-0.693,0.193-1.043,0.207   c-0.111,0.004-0.305-0.251-0.338-0.412c-0.274-1.364-0.955-2.523-1.92-3.471c-1.121-1.103-2.472-1.856-4.15-2.05   C7.455,0.815,7.5,0.407,7.546,0C7.778,0,8.01,0,8.242,0z"/>
	<path fill="#898687" d="M11.877,7.15c-0.436,0.103-0.818,0.194-1.264,0.299C10.215,5.61,9.087,4.498,7.244,4.144   c0.072-0.433,0.14-0.835,0.21-1.256C9.877,3.347,11.293,4.754,11.877,7.15z"/>
</g>
</svg>